# ProBuilder 4.2.3
# https://unity3d.com/unity/features/worldbuilding/probuilder
# 6/9/2020 4:10:23 PM

mtllib ./FingerSegment.mtl
o FingerSegment

g Cube
v 0.01051109 -0.005643346 0.04005736
v 0.004568379 -0.008049338 0.04053529
v 0.004568379 0.0006 0.04053529
v 0.01283722 0.0006 0.03987028
v -0.00165881 -0.005566229 0.0410361
v -0.003700467 0.0006 0.0412003
v -0.0004075785 0.005637703 0.04093547
v 0.004568379 0.009249338 0.04053529
v 0.009852296 0.00608007 0.04011033
v -0.005392193 -0.004699974 0.02016501
v -0.008945497 0.0006 0.02045078
v -0.007083921 -0.004699974 -0.0008702781
v -0.01063722 0.0006 -0.0005845111
v -0.007083921 0.00591422 -0.0008702781
v -0.005392193 0.00591422 0.02016501
v 0.001184924 -0.008049338 -0.001535287
v 0.001184924 0.0006 -0.001535287
v 0.00945377 -0.004699974 -0.002200296
v 0.009144347 0.0006 -0.002175411
v 0.00945377 0.00591422 -0.002200296
v 0.001184924 0.009249338 -0.001535287
v 0.0111455 -0.004699974 0.018835
v 0.01083608 0.0006 0.01885989
v 0.0111455 0.00591422 0.018835
v 0.002876652 0.009249338 0.0195
v 0.002876652 -0.008049338 0.0195

vt 0.009952843 0.01590371
vt 0.0016573 0.01590371
vt 0.0016573 0.02455305
vt 0.009952843 0.02455305
vt -0.006638244 0.01590371
vt -0.006638244 0.02455305
vt -0.006638244 0.03320239
vt 0.0016573 0.03320239
vt 0.009952843 0.03320239
vt 0.1302385 0.01590371
vt 0.1091353 0.01590371
vt 0.1091353 0.02455305
vt 0.1302385 0.02455305
vt 0.08803212 0.01590371
vt 0.08803212 0.02455305
vt 0.08803212 0.03320239
vt 0.1091353 0.03320239
vt 0.1302385 0.03320239
vt 0.006638244 0.01590371
vt -0.0016573 0.01590371
vt -0.0016573 0.02455305
vt 0.006638244 0.02455305
vt -0.009952843 0.01590371
vt -0.009952843 0.02455305
vt -0.009952843 0.03320239
vt -0.0016573 0.03320239
vt 0.006638244 0.03320239
vt -0.08803212 0.01590371
vt -0.1091353 0.01590371
vt -0.1091353 0.02455305
vt -0.08803212 0.02455305
vt -0.1302385 0.01590371
vt -0.1302385 0.02455305
vt -0.1302385 0.03320239
vt -0.1091353 0.03320239
vt -0.08803212 0.03320239
vt -0.009952843 0.1302385
vt -0.0016573 0.1302385
vt -0.0016573 0.1091353
vt -0.009952843 0.1091353
vt 0.006638244 0.1302385
vt 0.006638244 0.1091353
vt 0.006638244 0.08803212
vt -0.0016573 0.08803212
vt -0.009952843 0.08803212
vt 0.009952843 0.08803212
vt 0.0016573 0.08803212
vt 0.0016573 0.1091353
vt 0.009952843 0.1091353
vt -0.006638244 0.08803212
vt -0.006638244 0.1091353
vt -0.006638244 0.1302385
vt 0.0016573 0.1302385
vt 0.009952843 0.1302385

vn 0.08016391 6.74567E-07 0.9967817
vn -0.8712311 -0.4342213 0.1783252
vn -0.8211176 -0.5571811 0.1237543
vn -0.9213445 -0.3112616 0.232896
vn -0.8270996 -0.5581053 0.06651806
vn -0.8277901 0.557074 0.06657359
vn -0.811685 0.5474434 0.203581
vn -0.8147434 0.5432147 0.2027587
vn -0.8086266 0.5516722 0.2044034
vn -0.08016481 -4.765913E-07 -0.9967816
vn 0.9950763 0.0584702 -0.08002726
vn 0.9977846 0.05810004 0.0324097
vn 0.9651405 -0.1459944 -0.02820325
vn 0.9324964 -0.3500889 -0.0888162
vn 0.9359041 0.2088787 -0.02249874
vn 0.8780072 0.4760647 0.04965772
vn 0.9938011 -0.05830737 -0.09465521
vn 0.9950854 -0.05831366 -0.080028
vn 0.5156684 0.8564331 0.02466817
vn 0.4437438 0.8921282 -0.00261738
vn 0.3718192 0.9278234 -0.02990293
vn -0.5842742 0.8101948 0.04698927
vn -0.4747649 0.8678589 0.07348347
vn -0.3652557 0.925523 0.09997766
vn -0.3718192 0.9278234 0.02990293
vn 0.3731852 -0.9272713 -0.03001277
vn -0.3731852 -0.9272713 0.03001278
vn -0.3733229 -0.9272699 0.028293
vn -0.3707484 -0.9282777 0.02895138
vn -0.3681739 -0.9292854 0.02960976

usemtl ProBuilder_Default_URP
f 4/4/1 3/3/1 2/2/1 1/1/1
f 3/3/1 6/6/1 5/5/1 2/2/1
f 8/8/1 7/7/1 6/6/1 3/3/1
f 9/9/1 8/8/1 3/3/1 4/4/1
f 6/13/4 11/12/2 10/11/3 5/10/2
f 11/12/5 13/15/5 12/14/5 10/11/5
f 15/17/6 14/16/6 13/15/6 11/12/6
f 7/18/8 15/17/7 11/12/9 6/13/7
f 12/19/10 13/22/10 17/21/10 16/20/10
f 16/20/10 17/21/10 19/24/10 18/23/10
f 17/21/10 21/26/10 20/25/10 19/24/10
f 13/22/10 14/27/10 21/26/10 17/21/10
f 18/28/11 19/31/11 23/30/11 22/29/11
f 22/29/12 23/30/13 4/33/14 1/32/13
f 23/30/17 24/35/15 9/34/16 4/33/15
f 19/31/18 20/36/18 24/35/18 23/30/18
f 8/38/20 9/37/19 24/40/20 25/39/21
f 7/41/23 8/38/22 25/39/23 15/42/24
f 15/42/25 25/39/25 21/44/25 14/43/25
f 25/39/21 24/40/21 20/45/21 21/44/21
f 16/47/26 18/46/26 22/49/26 26/48/26
f 12/50/27 16/47/27 26/48/27 10/51/27
f 10/51/28 26/48/29 2/53/30 5/52/29
f 26/48/26 22/49/26 1/54/26 2/53/26

